<svg width="41" height="41" viewBox="0 0 41 41" fill="none" xmlns="http://www.w3.org/2000/svg">
<g id="logo">
<rect id="Rectangle 1" width="41" height="41" rx="7" fill="#699BE6"/>
<g id="Rectangle 4">
<rect x="16.5577" y="7.88461" width="7.88462" height="7.88462" rx="1" fill="white"/>
<rect x="16.5577" y="7.88461" width="7.88462" height="7.88462" rx="1" fill="white"/>
<rect x="16.5577" y="7.88461" width="7.88462" height="7.88462" rx="1" fill="white"/>
</g>
<g id="Rectangle 6">
<rect x="26.0192" y="7.88461" width="7.88462" height="7.88462" rx="1" fill="white"/>
<rect x="26.0192" y="7.88461" width="7.88462" height="7.88462" rx="1" fill="white"/>
<rect x="26.0192" y="7.88461" width="7.88462" height="7.88462" rx="1" fill="white"/>
</g>
<g id="Rectangle 5">
<rect x="7.09616" y="7.88461" width="7.88462" height="7.88462" rx="1" fill="white"/>
<rect x="7.09616" y="7.88461" width="7.88462" height="7.88462" rx="1" fill="white"/>
<rect x="7.09616" y="7.88461" width="7.88462" height="7.88462" rx="1" fill="white"/>
</g>
<g id="Rectangle 7">
<rect x="16.5577" y="17.3462" width="7.88462" height="7.88462" rx="1" fill="white"/>
<rect x="16.5577" y="17.3462" width="7.88462" height="7.88462" rx="1" fill="white"/>
<rect x="16.5577" y="17.3462" width="7.88462" height="7.88462" rx="1" fill="white"/>
</g>
<g id="Rectangle 9">
<rect x="7.09616" y="17.3462" width="7.88462" height="7.88462" rx="1" fill="white"/>
<rect x="7.09616" y="17.3462" width="7.88462" height="7.88462" rx="1" fill="white"/>
<rect x="7.09616" y="17.3462" width="7.88462" height="7.88462" rx="1" fill="white"/>
</g>
</g>
</svg>
